<?xml version="1.0" encoding="utf-8"?>
<!-- Generator: Adobe Illustrator 16.0.0, SVG Export Plug-In . SVG Version: 6.00 Build 0)  -->
<!DOCTYPE svg PUBLIC "-//W3C//DTD SVG 1.1//EN" "http://www.w3.org/Graphics/SVG/1.1/DTD/svg11.dtd">
<svg version="1.1" id="Layer_1" xmlns="http://www.w3.org/2000/svg" xmlns:xlink="http://www.w3.org/1999/xlink" x="0px" y="0px"
	 width="335.986px" height="235.19px" viewBox="0 0 335.986 235.19" enable-background="new 0 0 335.986 235.19"
	 xml:space="preserve">
<g>
	<g>
		<g>
			<rect x="0" y="0" fill="#D7F1FF" width="335.986" height="235.191"/>
		</g>
	</g>
</g>
<g opacity="0.1">
	<g>
		<path fill="#36566F" d="M317.354,125.521h-66.647c-1.559,0-2.831,1.27-2.831,2.822v5.449v63.818c0,1.551,1.272,2.818,2.831,2.818
			h66.647c1.556,0,2.829-1.268,2.829-2.818v-63.818v-5.449C320.184,126.79,318.91,125.521,317.354,125.521z"/>
	</g>
	<g>
		<path fill="#36566F" d="M190.535,58.365v0.177l-0.167-0.177h-8.104V41.684h-9.06h-8.043v16.681h-20.108V40.7V32.09v-5.449
			c0-1.553-1.272-2.822-2.829-2.822H30.212c-1.559,0-2.831,1.27-2.831,2.822v5.449V40.7v60.617c0,1.551,1.272,2.819,2.831,2.819
			h91.812v81.416h102.888V94.803l-18.34-19.345L190.535,58.365z"/>
	</g>
	<g>
		<polygon fill="#36566F" points="67.782,120.009 67.782,120.114 67.683,120.009 26.878,120.009 26.878,200.706 37.985,200.706 
			37.985,206.761 44.354,206.761 51.135,206.761 51.135,200.706 88.307,200.706 88.307,141.765 77.371,130.229 		"/>
	</g>
	<g>
		<polygon fill="#36566F" points="193.561,50.707 218.489,50.707 218.489,58.338 225.612,50.707 233.752,50.707 233.752,23.743 
			193.561,23.743 		"/>
	</g>
	<g>
		<path fill="#36566F" d="M319.759,45.004c1.148,0,2.084-0.936,2.084-2.084v-8.333c0-1.145-0.936-2.083-2.084-2.083h-4.167v-4.167
			c0-2.291-1.875-4.168-4.167-4.168h-58.338c-2.291,0-4.167,1.877-4.167,4.168V42.92v48.964v11.458c0,2.293,1.876,4.167,4.167,4.167
			h58.338c1.931,0,3.551-1.335,4.019-3.125h0.148v-1.042v-4.166V96.05V59.591h4.167c1.148,0,2.084-0.938,2.084-2.084v-8.334
			c0-1.146-0.936-2.085-2.084-2.085h-4.167v-2.084H319.759z"/>
	</g>
</g>
<g>
	<g>
		<g>
			<path fill="#324A5E" d="M315.279,121.587c0-1.553-1.273-2.822-2.829-2.822h-66.647c-1.559,0-2.831,1.27-2.831,2.822v5.449h72.308
				V121.587z"/>
		</g>
		<g>
			<path fill="#6E9FBD" d="M242.972,127.036v63.816c0,1.551,1.272,2.82,2.831,2.82h66.647c1.556,0,2.829-1.27,2.829-2.82v-63.816
				H242.972z"/>
		</g>
	</g>
	<g>
		<g>
			<ellipse fill="#FFEF5A" cx="309.134" cy="122.962" rx="2.302" ry="2.293"/>
		</g>
		<g>
			<ellipse fill="#FFFDFE" cx="302.07" cy="122.901" rx="2.301" ry="2.293"/>
		</g>
		<g>
			<ellipse fill="#90EAFE" cx="295.104" cy="122.901" rx="2.302" ry="2.293"/>
		</g>
	</g>
</g>
<g>
	<polygon fill="#36566F" points="220.008,178.794 220.008,88.046 185.464,51.608 117.12,51.608 117.12,178.794 	"/>
</g>
<g>
	<polygon fill="#6E9FBD" points="219.84,88.07 185.631,88.07 185.631,51.608 	"/>
</g>
<g>
	<path fill="#324A5E" d="M105.43,209.916h0.383v2.613h1.252v0.318h-1.635V209.916z"/>
	<path fill="#324A5E" d="M108.27,212.895c-0.565,0-1.009-0.418-1.009-1.082c0-0.705,0.465-1.117,1.044-1.117
		c0.604,0,1.013,0.438,1.013,1.078c0,0.783-0.543,1.121-1.043,1.121H108.27z M108.283,212.607c0.366,0,0.64-0.344,0.64-0.822
		c0-0.355-0.179-0.803-0.631-0.803c-0.448,0-0.644,0.416-0.644,0.816c0,0.461,0.261,0.809,0.63,0.809H108.283z"/>
	<path fill="#324A5E" d="M109.805,211.398c0-0.248-0.004-0.461-0.018-0.656h0.335l0.018,0.414h0.013
		c0.095-0.283,0.33-0.461,0.587-0.461c0.039,0,0.069,0.004,0.104,0.012v0.357c-0.043-0.004-0.083-0.01-0.135-0.01
		c-0.27,0-0.461,0.205-0.513,0.488c-0.009,0.057-0.013,0.117-0.013,0.182v1.123H109.8L109.805,211.398z"/>
	<path fill="#324A5E" d="M111.414,211.859c0.009,0.518,0.335,0.73,0.718,0.73c0.274,0,0.443-0.047,0.583-0.104l0.07,0.27
		c-0.135,0.061-0.37,0.135-0.705,0.135c-0.644,0-1.035-0.43-1.035-1.061c0-0.641,0.378-1.141,0.992-1.141
		c0.687,0,0.865,0.605,0.865,0.992c0,0.078-0.004,0.139-0.013,0.184L111.414,211.859z M112.532,211.586
		c0.004-0.238-0.1-0.621-0.526-0.621c-0.392,0-0.557,0.355-0.587,0.621H112.532z"/>
	<path fill="#324A5E" d="M113.375,211.312c0-0.223-0.009-0.396-0.017-0.57h0.334l0.018,0.34h0.013
		c0.117-0.201,0.313-0.387,0.665-0.387c0.283,0,0.5,0.174,0.592,0.422h0.008c0.065-0.123,0.152-0.209,0.239-0.275
		c0.126-0.096,0.261-0.146,0.461-0.146c0.283,0,0.696,0.182,0.696,0.912v1.24h-0.374v-1.191c0-0.41-0.152-0.648-0.457-0.648
		c-0.222,0-0.387,0.16-0.457,0.344c-0.018,0.057-0.03,0.125-0.03,0.191v1.305h-0.374v-1.262c0-0.34-0.148-0.578-0.439-0.578
		c-0.235,0-0.413,0.191-0.474,0.383c-0.021,0.057-0.03,0.121-0.03,0.188v1.27h-0.374V211.312z"/>
	<path fill="#324A5E" d="M119.51,210.355c-0.144,0-0.239-0.113-0.239-0.248s0.1-0.244,0.248-0.244s0.244,0.109,0.244,0.244
		s-0.096,0.248-0.248,0.248H119.51z M119.327,212.848v-2.105h0.383v2.105H119.327z"/>
	<path fill="#324A5E" d="M120.345,211.43c0-0.27-0.004-0.486-0.017-0.688h0.343l0.022,0.361h0.008
		c0.152-0.262,0.405-0.408,0.744-0.408c0.513,0,0.896,0.43,0.896,1.068c0,0.758-0.465,1.131-0.957,1.131
		c-0.283,0-0.522-0.121-0.648-0.33h-0.009v1.145h-0.383V211.43z M120.728,211.99c0,0.053,0.004,0.109,0.018,0.156
		c0.065,0.266,0.3,0.449,0.569,0.449c0.405,0,0.639-0.332,0.639-0.814c0-0.422-0.217-0.783-0.622-0.783
		c-0.261,0-0.509,0.184-0.583,0.471c-0.008,0.053-0.021,0.109-0.021,0.156V211.99z"/>
	<path fill="#324A5E" d="M122.767,212.461c0.118,0.068,0.317,0.146,0.509,0.146c0.274,0,0.405-0.135,0.405-0.312
		c0-0.184-0.109-0.283-0.387-0.387c-0.383-0.139-0.561-0.344-0.561-0.596c0-0.34,0.278-0.617,0.726-0.617
		c0.213,0,0.4,0.057,0.513,0.129l-0.091,0.275c-0.083-0.049-0.235-0.123-0.43-0.123c-0.227,0-0.348,0.131-0.348,0.287
		c0,0.18,0.122,0.258,0.396,0.361c0.361,0.135,0.552,0.318,0.552,0.635c0,0.375-0.292,0.635-0.783,0.635
		c-0.23,0-0.443-0.061-0.591-0.146L122.767,212.461z"/>
	<path fill="#324A5E" d="M126.302,212.273c0,0.217,0.004,0.408,0.018,0.574h-0.339l-0.021-0.344h-0.009
		c-0.096,0.17-0.322,0.391-0.696,0.391c-0.331,0-0.727-0.186-0.727-0.922v-1.23h0.383v1.162c0,0.398,0.126,0.674,0.47,0.674
		c0.257,0,0.435-0.18,0.504-0.354c0.022-0.051,0.035-0.121,0.035-0.195v-1.287h0.383V212.273z"/>
	<path fill="#324A5E" d="M126.936,211.312c0-0.223-0.009-0.396-0.017-0.57h0.334l0.018,0.34h0.013
		c0.117-0.201,0.313-0.387,0.665-0.387c0.283,0,0.5,0.174,0.592,0.422h0.008c0.065-0.123,0.152-0.209,0.239-0.275
		c0.126-0.096,0.261-0.146,0.461-0.146c0.283,0,0.696,0.182,0.696,0.912v1.24h-0.374v-1.191c0-0.41-0.152-0.648-0.457-0.648
		c-0.222,0-0.387,0.16-0.457,0.344c-0.018,0.057-0.03,0.125-0.03,0.191v1.305h-0.374v-1.262c0-0.34-0.148-0.578-0.439-0.578
		c-0.235,0-0.413,0.191-0.474,0.383c-0.021,0.057-0.03,0.121-0.03,0.188v1.27h-0.374V211.312z"/>
	<path fill="#324A5E" d="M134.707,209.76v2.543c0,0.188,0.004,0.4,0.018,0.545h-0.344l-0.018-0.365h-0.008
		c-0.118,0.234-0.37,0.412-0.713,0.412c-0.509,0-0.905-0.43-0.905-1.068c-0.004-0.705,0.435-1.131,0.944-1.131
		c0.326,0,0.543,0.152,0.635,0.316h0.009v-1.252H134.707z M134.324,211.6c0-0.053-0.004-0.113-0.017-0.166
		c-0.057-0.238-0.266-0.439-0.553-0.439c-0.396,0-0.63,0.348-0.63,0.809c0,0.432,0.213,0.783,0.622,0.783
		c0.256,0,0.491-0.174,0.561-0.457c0.013-0.051,0.017-0.104,0.017-0.164V211.6z"/>
	<path fill="#324A5E" d="M136.198,212.895c-0.565,0-1.009-0.418-1.009-1.082c0-0.705,0.465-1.117,1.044-1.117
		c0.604,0,1.013,0.438,1.013,1.078c0,0.783-0.543,1.121-1.043,1.121H136.198z M136.21,212.607c0.366,0,0.64-0.344,0.64-0.822
		c0-0.355-0.179-0.803-0.631-0.803c-0.448,0-0.644,0.416-0.644,0.816c0,0.461,0.261,0.809,0.63,0.809H136.21z"/>
	<path fill="#324A5E" d="M137.728,209.76h0.383v3.088h-0.383V209.76z"/>
	<path fill="#324A5E" d="M139.603,212.895c-0.565,0-1.009-0.418-1.009-1.082c0-0.705,0.465-1.117,1.044-1.117
		c0.604,0,1.013,0.438,1.013,1.078c0,0.783-0.543,1.121-1.043,1.121H139.603z M139.615,212.607c0.366,0,0.64-0.344,0.64-0.822
		c0-0.355-0.179-0.803-0.631-0.803c-0.448,0-0.644,0.416-0.644,0.816c0,0.461,0.261,0.809,0.631,0.809H139.615z"/>
	<path fill="#324A5E" d="M141.137,211.398c0-0.248-0.004-0.461-0.018-0.656h0.335l0.018,0.414h0.013
		c0.096-0.283,0.33-0.461,0.587-0.461c0.039,0,0.069,0.004,0.104,0.012v0.357c-0.043-0.004-0.083-0.01-0.135-0.01
		c-0.27,0-0.461,0.205-0.513,0.488c-0.009,0.057-0.013,0.117-0.013,0.182v1.123h-0.383L141.137,211.398z"/>
	<path fill="#324A5E" d="M144.829,212.461c0.118,0.068,0.317,0.146,0.509,0.146c0.274,0,0.405-0.135,0.405-0.312
		c0-0.184-0.109-0.283-0.387-0.387c-0.383-0.139-0.561-0.344-0.561-0.596c0-0.34,0.278-0.617,0.726-0.617
		c0.213,0,0.4,0.057,0.513,0.129l-0.091,0.275c-0.083-0.049-0.235-0.123-0.43-0.123c-0.227,0-0.348,0.131-0.348,0.287
		c0,0.18,0.122,0.258,0.396,0.361c0.361,0.135,0.552,0.318,0.552,0.635c0,0.375-0.292,0.635-0.783,0.635
		c-0.231,0-0.444-0.061-0.592-0.146L144.829,212.461z"/>
	<path fill="#324A5E" d="M146.785,210.355c-0.144,0-0.239-0.113-0.239-0.248s0.1-0.244,0.248-0.244s0.244,0.109,0.244,0.244
		s-0.096,0.248-0.248,0.248H146.785z M146.603,212.848v-2.105h0.383v2.105H146.603z"/>
	<path fill="#324A5E" d="M148.081,210.238v0.504h0.548v0.291h-0.548v1.135c0,0.262,0.074,0.41,0.287,0.41
		c0.104,0,0.165-0.01,0.222-0.027l0.018,0.293c-0.074,0.025-0.191,0.051-0.339,0.051c-0.178,0-0.322-0.061-0.413-0.16
		c-0.104-0.117-0.148-0.305-0.148-0.553v-1.148h-0.326v-0.291h0.326v-0.387L148.081,210.238z"/>
	<path fill="#324A5E" d="M152.869,212.342c0,0.184,0.009,0.361,0.031,0.506h-0.344l-0.035-0.266h-0.013
		c-0.113,0.166-0.344,0.312-0.644,0.312c-0.426,0-0.644-0.299-0.644-0.604c0-0.51,0.452-0.787,1.265-0.783v-0.043
		c0-0.174-0.048-0.492-0.478-0.488c-0.2,0-0.405,0.057-0.552,0.156l-0.087-0.256c0.174-0.109,0.43-0.182,0.696-0.182
		c0.648,0,0.804,0.438,0.804,0.859V212.342z M152.495,211.773c-0.417-0.01-0.892,0.064-0.892,0.473c0,0.254,0.166,0.367,0.357,0.367
		c0.278,0,0.457-0.176,0.518-0.354c0.013-0.039,0.017-0.082,0.017-0.121V211.773z"/>
	<path fill="#324A5E" d="M153.481,211.312c0-0.223-0.009-0.396-0.017-0.57h0.334l0.018,0.34h0.013
		c0.117-0.201,0.313-0.387,0.665-0.387c0.283,0,0.5,0.174,0.592,0.422h0.008c0.065-0.123,0.152-0.209,0.239-0.275
		c0.126-0.096,0.261-0.146,0.461-0.146c0.283,0,0.696,0.182,0.696,0.912v1.24h-0.374v-1.191c0-0.41-0.152-0.648-0.457-0.648
		c-0.222,0-0.387,0.16-0.457,0.344c-0.018,0.057-0.03,0.125-0.03,0.191v1.305h-0.374v-1.262c0-0.34-0.148-0.578-0.439-0.578
		c-0.235,0-0.413,0.191-0.474,0.383c-0.021,0.057-0.03,0.121-0.03,0.188v1.27h-0.374V211.312z"/>
	<path fill="#324A5E" d="M157.325,211.859c0.009,0.518,0.335,0.73,0.718,0.73c0.274,0,0.443-0.047,0.583-0.104l0.07,0.27
		c-0.135,0.061-0.37,0.135-0.705,0.135c-0.644,0-1.035-0.43-1.035-1.061c0-0.641,0.378-1.141,0.992-1.141
		c0.687,0,0.865,0.605,0.865,0.992c0,0.078-0.004,0.139-0.013,0.184L157.325,211.859z M158.442,211.586
		c0.004-0.238-0.1-0.621-0.526-0.621c-0.392,0-0.557,0.355-0.587,0.621H158.442z"/>
	<path fill="#324A5E" d="M159.747,210.238v0.504h0.548v0.291h-0.548v1.135c0,0.262,0.074,0.41,0.287,0.41
		c0.104,0,0.165-0.01,0.222-0.027l0.018,0.293c-0.074,0.025-0.191,0.051-0.339,0.051c-0.178,0-0.322-0.061-0.413-0.16
		c-0.104-0.117-0.148-0.305-0.148-0.553v-1.148h-0.326v-0.291h0.326v-0.387L159.747,210.238z"/>
	<path fill="#324A5E" d="M160.447,213.387c0.095-0.262,0.213-0.727,0.261-1.045l0.426-0.043c-0.104,0.369-0.296,0.854-0.417,1.057
		L160.447,213.387z"/>
	<path fill="#324A5E" d="M165.122,212.773c-0.1,0.047-0.322,0.121-0.604,0.121c-0.635,0-1.048-0.43-1.048-1.078
		s0.444-1.121,1.131-1.121c0.226,0,0.426,0.057,0.531,0.111l-0.087,0.293c-0.092-0.049-0.235-0.102-0.444-0.102
		c-0.483,0-0.744,0.361-0.744,0.801c0,0.488,0.313,0.787,0.73,0.787c0.218,0,0.361-0.053,0.47-0.1L165.122,212.773z"/>
	<path fill="#324A5E" d="M166.401,212.895c-0.565,0-1.009-0.418-1.009-1.082c0-0.705,0.465-1.117,1.044-1.117
		c0.604,0,1.013,0.438,1.013,1.078c0,0.783-0.543,1.121-1.043,1.121H166.401z M166.414,212.607c0.366,0,0.64-0.344,0.64-0.822
		c0-0.355-0.179-0.803-0.631-0.803c-0.448,0-0.644,0.416-0.644,0.816c0,0.461,0.261,0.809,0.63,0.809H166.414z"/>
	<path fill="#324A5E" d="M167.931,211.312c0-0.223-0.004-0.396-0.017-0.57h0.339l0.022,0.344h0.009
		c0.104-0.195,0.348-0.391,0.696-0.391c0.291,0,0.743,0.174,0.743,0.895v1.258h-0.383v-1.213c0-0.34-0.126-0.627-0.487-0.627
		c-0.248,0-0.443,0.178-0.513,0.391c-0.017,0.049-0.026,0.117-0.026,0.18v1.27h-0.383V211.312z"/>
	<path fill="#324A5E" d="M170.292,212.461c0.118,0.068,0.317,0.146,0.509,0.146c0.273,0,0.404-0.135,0.404-0.312
		c0-0.184-0.108-0.283-0.387-0.387c-0.383-0.139-0.561-0.344-0.561-0.596c0-0.34,0.277-0.617,0.726-0.617
		c0.214,0,0.4,0.057,0.513,0.129l-0.091,0.275c-0.083-0.049-0.235-0.123-0.431-0.123c-0.227,0-0.348,0.131-0.348,0.287
		c0,0.18,0.121,0.258,0.396,0.361c0.36,0.135,0.552,0.318,0.552,0.635c0,0.375-0.292,0.635-0.783,0.635
		c-0.23,0-0.443-0.061-0.591-0.146L170.292,212.461z"/>
	<path fill="#324A5E" d="M172.283,211.859c0.009,0.518,0.335,0.73,0.718,0.73c0.274,0,0.443-0.047,0.583-0.104l0.069,0.27
		c-0.135,0.061-0.37,0.135-0.704,0.135c-0.645,0-1.035-0.43-1.035-1.061c0-0.641,0.378-1.141,0.991-1.141
		c0.687,0,0.865,0.605,0.865,0.992c0,0.078-0.004,0.139-0.013,0.184L172.283,211.859z M173.4,211.586
		c0.005-0.238-0.1-0.621-0.525-0.621c-0.392,0-0.557,0.355-0.588,0.621H173.4z"/>
	<path fill="#324A5E" d="M175.744,212.773c-0.1,0.047-0.321,0.121-0.604,0.121c-0.635,0-1.049-0.43-1.049-1.078
		s0.443-1.121,1.131-1.121c0.227,0,0.426,0.057,0.531,0.111l-0.088,0.293c-0.092-0.049-0.234-0.102-0.443-0.102
		c-0.482,0-0.744,0.361-0.744,0.801c0,0.488,0.313,0.787,0.73,0.787c0.219,0,0.361-0.053,0.471-0.1L175.744,212.773z"/>
	<path fill="#324A5E" d="M176.709,210.238v0.504h0.548v0.291h-0.548v1.135c0,0.262,0.074,0.41,0.287,0.41
		c0.104,0,0.165-0.01,0.222-0.027l0.018,0.293c-0.074,0.025-0.191,0.051-0.339,0.051c-0.179,0-0.322-0.061-0.414-0.16
		c-0.104-0.117-0.147-0.305-0.147-0.553v-1.148h-0.326v-0.291h0.326v-0.387L176.709,210.238z"/>
	<path fill="#324A5E" d="M177.879,211.859c0.009,0.518,0.335,0.73,0.718,0.73c0.274,0,0.443-0.047,0.583-0.104l0.069,0.27
		c-0.135,0.061-0.37,0.135-0.704,0.135c-0.645,0-1.035-0.43-1.035-1.061c0-0.641,0.378-1.141,0.991-1.141
		c0.687,0,0.865,0.605,0.865,0.992c0,0.078-0.004,0.139-0.013,0.184L177.879,211.859z M178.996,211.586
		c0.005-0.238-0.1-0.621-0.525-0.621c-0.392,0-0.557,0.355-0.588,0.621H178.996z"/>
	<path fill="#324A5E" d="M180.301,210.238v0.504h0.548v0.291h-0.548v1.135c0,0.262,0.074,0.41,0.287,0.41
		c0.104,0,0.165-0.01,0.222-0.027l0.018,0.293c-0.074,0.025-0.191,0.051-0.339,0.051c-0.179,0-0.322-0.061-0.414-0.16
		c-0.104-0.117-0.147-0.305-0.147-0.553v-1.148h-0.326v-0.291h0.326v-0.387L180.301,210.238z"/>
	<path fill="#324A5E" d="M183.04,212.273c0,0.217,0.005,0.408,0.018,0.574h-0.339l-0.021-0.344h-0.01
		c-0.096,0.17-0.321,0.391-0.695,0.391c-0.33,0-0.727-0.186-0.727-0.922v-1.23h0.383v1.162c0,0.398,0.126,0.674,0.47,0.674
		c0.257,0,0.435-0.18,0.505-0.354c0.021-0.051,0.034-0.121,0.034-0.195v-1.287h0.383V212.273z"/>
	<path fill="#324A5E" d="M183.679,211.398c0-0.248-0.005-0.461-0.018-0.656h0.335l0.018,0.414h0.014
		c0.095-0.283,0.33-0.461,0.586-0.461c0.039,0,0.07,0.004,0.105,0.012v0.357c-0.044-0.004-0.084-0.01-0.135-0.01
		c-0.271,0-0.462,0.205-0.514,0.488c-0.009,0.057-0.014,0.117-0.014,0.182v1.123h-0.383L183.679,211.398z"/>
	<path fill="#324A5E" d="M188.906,212.342c0,0.184,0.008,0.361,0.03,0.506h-0.344l-0.034-0.266h-0.014
		c-0.113,0.166-0.344,0.312-0.644,0.312c-0.427,0-0.644-0.299-0.644-0.604c0-0.51,0.452-0.787,1.266-0.783v-0.043
		c0-0.174-0.049-0.492-0.479-0.488c-0.2,0-0.404,0.057-0.553,0.156l-0.086-0.256c0.174-0.109,0.43-0.182,0.695-0.182
		c0.648,0,0.805,0.438,0.805,0.859V212.342z M188.531,211.773c-0.417-0.01-0.891,0.064-0.891,0.473c0,0.254,0.165,0.367,0.356,0.367
		c0.278,0,0.456-0.176,0.518-0.354c0.013-0.039,0.017-0.082,0.017-0.121V211.773z"/>
	<path fill="#324A5E" d="M191.336,209.76v2.543c0,0.188,0.005,0.4,0.018,0.545h-0.344l-0.018-0.365h-0.008
		c-0.117,0.234-0.369,0.412-0.713,0.412c-0.51,0-0.905-0.43-0.905-1.068c-0.004-0.705,0.435-1.131,0.944-1.131
		c0.326,0,0.543,0.152,0.635,0.316h0.008v-1.252H191.336z M190.953,211.6c0-0.053-0.004-0.113-0.017-0.166
		c-0.057-0.238-0.266-0.439-0.553-0.439c-0.396,0-0.63,0.348-0.63,0.809c0,0.432,0.213,0.783,0.621,0.783
		c0.257,0,0.492-0.174,0.562-0.457c0.013-0.051,0.017-0.104,0.017-0.164V211.6z"/>
	<path fill="#324A5E" d="M192.153,210.355c-0.144,0-0.239-0.113-0.239-0.248s0.1-0.244,0.248-0.244s0.244,0.109,0.244,0.244
		s-0.096,0.248-0.248,0.248H192.153z M191.971,212.848v-2.105h0.383v2.105H191.971z"/>
	<path fill="#324A5E" d="M192.988,211.43c0-0.27-0.004-0.486-0.018-0.688h0.344l0.021,0.361h0.009
		c0.152-0.262,0.405-0.408,0.743-0.408c0.514,0,0.896,0.43,0.896,1.068c0,0.758-0.465,1.131-0.957,1.131
		c-0.282,0-0.521-0.121-0.647-0.33h-0.009v1.145h-0.383V211.43z M193.371,211.99c0,0.053,0.004,0.109,0.018,0.156
		c0.064,0.266,0.3,0.449,0.569,0.449c0.405,0,0.64-0.332,0.64-0.814c0-0.422-0.218-0.783-0.622-0.783
		c-0.261,0-0.509,0.184-0.583,0.471c-0.008,0.053-0.021,0.109-0.021,0.156V211.99z"/>
	<path fill="#324A5E" d="M195.645,210.355c-0.143,0-0.238-0.113-0.238-0.248s0.1-0.244,0.248-0.244c0.147,0,0.243,0.109,0.243,0.244
		s-0.096,0.248-0.248,0.248H195.645z M195.463,212.848v-2.105h0.383v2.105H195.463z"/>
	<path fill="#324A5E" d="M196.428,212.461c0.117,0.068,0.317,0.146,0.509,0.146c0.274,0,0.405-0.135,0.405-0.312
		c0-0.184-0.109-0.283-0.388-0.387c-0.383-0.139-0.562-0.344-0.562-0.596c0-0.34,0.279-0.617,0.727-0.617
		c0.213,0,0.4,0.057,0.514,0.129l-0.092,0.275c-0.082-0.049-0.234-0.123-0.43-0.123c-0.227,0-0.349,0.131-0.349,0.287
		c0,0.18,0.122,0.258,0.396,0.361c0.361,0.135,0.553,0.318,0.553,0.635c0,0.375-0.291,0.635-0.783,0.635
		c-0.23,0-0.443-0.061-0.592-0.146L196.428,212.461z"/>
	<path fill="#324A5E" d="M199.702,212.773c-0.101,0.047-0.321,0.121-0.604,0.121c-0.635,0-1.049-0.43-1.049-1.078
		s0.444-1.121,1.131-1.121c0.227,0,0.427,0.057,0.531,0.111l-0.087,0.293c-0.092-0.049-0.235-0.102-0.444-0.102
		c-0.482,0-0.743,0.361-0.743,0.801c0,0.488,0.313,0.787,0.73,0.787c0.218,0,0.361-0.053,0.47-0.1L199.702,212.773z"/>
	<path fill="#324A5E" d="M200.332,210.355c-0.144,0-0.239-0.113-0.239-0.248s0.101-0.244,0.248-0.244s0.243,0.109,0.243,0.244
		s-0.096,0.248-0.248,0.248H200.332z M200.149,212.848v-2.105h0.383v2.105H200.149z"/>
	<path fill="#324A5E" d="M201.167,211.312c0-0.223-0.005-0.396-0.017-0.57h0.338l0.022,0.344h0.009
		c0.104-0.195,0.348-0.391,0.695-0.391c0.291,0,0.744,0.174,0.744,0.895v1.258h-0.383v-1.213c0-0.34-0.126-0.627-0.487-0.627
		c-0.247,0-0.443,0.178-0.513,0.391c-0.018,0.049-0.026,0.117-0.026,0.18v1.27h-0.383V211.312z"/>
	<path fill="#324A5E" d="M205.381,212.539c0,0.486-0.101,0.777-0.301,0.965c-0.209,0.188-0.504,0.252-0.77,0.252
		c-0.252,0-0.53-0.061-0.7-0.174l0.096-0.295c0.14,0.09,0.356,0.168,0.618,0.168c0.391,0,0.678-0.203,0.678-0.738v-0.23h-0.008
		c-0.113,0.195-0.344,0.352-0.67,0.352c-0.522,0-0.896-0.443-0.896-1.029c0-0.715,0.465-1.113,0.953-1.113
		c0.365,0,0.561,0.186,0.656,0.359h0.009l0.013-0.312h0.34c-0.014,0.148-0.018,0.318-0.018,0.574V212.539z M204.998,211.568
		c0-0.061-0.004-0.117-0.021-0.17c-0.07-0.225-0.253-0.408-0.535-0.408c-0.365,0-0.627,0.309-0.627,0.801
		c0,0.408,0.214,0.756,0.623,0.756c0.238,0,0.451-0.148,0.529-0.395c0.022-0.062,0.031-0.137,0.031-0.205V211.568z"/>
	<path fill="#324A5E" d="M208.555,211.859c0.008,0.518,0.334,0.73,0.717,0.73c0.274,0,0.443-0.047,0.583-0.104l0.069,0.27
		c-0.135,0.061-0.369,0.135-0.704,0.135c-0.644,0-1.035-0.43-1.035-1.061c0-0.641,0.378-1.141,0.991-1.141
		c0.688,0,0.865,0.605,0.865,0.992c0,0.078-0.004,0.139-0.012,0.184L208.555,211.859z M209.672,211.586
		c0.004-0.238-0.1-0.621-0.525-0.621c-0.393,0-0.557,0.355-0.588,0.621H209.672z"/>
	<path fill="#324A5E" d="M210.516,209.76h0.383v3.088h-0.383V209.76z"/>
	<path fill="#324A5E" d="M211.715,210.355c-0.143,0-0.238-0.113-0.238-0.248s0.1-0.244,0.248-0.244c0.147,0,0.243,0.109,0.243,0.244
		s-0.096,0.248-0.248,0.248H211.715z M211.533,212.848v-2.105h0.383v2.105H211.533z"/>
	<path fill="#324A5E" d="M213.012,210.238v0.504h0.547v0.291h-0.547v1.135c0,0.262,0.074,0.41,0.287,0.41
		c0.104,0,0.164-0.01,0.221-0.027l0.018,0.293c-0.074,0.025-0.191,0.051-0.339,0.051c-0.179,0-0.321-0.061-0.413-0.16
		c-0.104-0.117-0.148-0.305-0.148-0.553v-1.148h-0.326v-0.291h0.326v-0.387L213.012,210.238z"/>
	<path fill="#324A5E" d="M213.712,213.387c0.095-0.262,0.213-0.727,0.261-1.045l0.426-0.043c-0.104,0.369-0.295,0.854-0.417,1.057
		L213.712,213.387z"/>
	<path fill="#324A5E" d="M216.834,212.461c0.118,0.068,0.318,0.146,0.51,0.146c0.273,0,0.404-0.135,0.404-0.312
		c0-0.184-0.109-0.283-0.387-0.387c-0.383-0.139-0.562-0.344-0.562-0.596c0-0.34,0.278-0.617,0.726-0.617
		c0.214,0,0.4,0.057,0.514,0.129l-0.092,0.275c-0.082-0.049-0.234-0.123-0.43-0.123c-0.227,0-0.348,0.131-0.348,0.287
		c0,0.18,0.121,0.258,0.396,0.361c0.36,0.135,0.552,0.318,0.552,0.635c0,0.375-0.291,0.635-0.782,0.635
		c-0.231,0-0.444-0.061-0.592-0.146L216.834,212.461z"/>
	<path fill="#324A5E" d="M218.826,211.859c0.008,0.518,0.334,0.73,0.717,0.73c0.274,0,0.443-0.047,0.583-0.104l0.069,0.27
		c-0.135,0.061-0.369,0.135-0.704,0.135c-0.644,0-1.035-0.43-1.035-1.061c0-0.641,0.378-1.141,0.991-1.141
		c0.688,0,0.865,0.605,0.865,0.992c0,0.078-0.004,0.139-0.012,0.184L218.826,211.859z M219.943,211.586
		c0.004-0.238-0.1-0.621-0.525-0.621c-0.393,0-0.557,0.355-0.588,0.621H219.943z"/>
	<path fill="#324A5E" d="M222.604,209.76v2.543c0,0.188,0.005,0.4,0.018,0.545h-0.344l-0.018-0.365h-0.009
		c-0.117,0.234-0.369,0.412-0.713,0.412c-0.509,0-0.904-0.43-0.904-1.068c-0.004-0.705,0.435-1.131,0.943-1.131
		c0.326,0,0.543,0.152,0.635,0.316h0.009v-1.252H222.604z M222.222,211.6c0-0.053-0.005-0.113-0.017-0.166
		c-0.057-0.238-0.266-0.439-0.553-0.439c-0.396,0-0.631,0.348-0.631,0.809c0,0.432,0.213,0.783,0.622,0.783
		c0.257,0,0.491-0.174,0.562-0.457c0.012-0.051,0.017-0.104,0.017-0.164V211.6z"/>
	<path fill="#324A5E" d="M227.383,209.76v2.543c0,0.188,0.004,0.4,0.018,0.545h-0.344l-0.018-0.365h-0.008
		c-0.118,0.234-0.37,0.412-0.714,0.412c-0.509,0-0.905-0.43-0.905-1.068c-0.004-0.705,0.436-1.131,0.944-1.131
		c0.326,0,0.544,0.152,0.635,0.316H227v-1.252H227.383z M227,211.6c0-0.053-0.004-0.113-0.018-0.166
		c-0.057-0.238-0.266-0.439-0.552-0.439c-0.396,0-0.631,0.348-0.631,0.809c0,0.432,0.213,0.783,0.622,0.783
		c0.256,0,0.491-0.174,0.561-0.457c0.014-0.051,0.018-0.104,0.018-0.164V211.6z"/>
	<path fill="#324A5E" d="M228.874,212.895c-0.565,0-1.009-0.418-1.009-1.082c0-0.705,0.465-1.117,1.043-1.117
		c0.605,0,1.014,0.438,1.014,1.078c0,0.783-0.543,1.121-1.043,1.121H228.874z M228.887,212.607c0.365,0,0.64-0.344,0.64-0.822
		c0-0.355-0.179-0.803-0.631-0.803c-0.448,0-0.644,0.416-0.644,0.816c0,0.461,0.261,0.809,0.631,0.809H228.887z"/>
	<path fill="#324A5E" d="M105.639,217.078c0.009,0.518,0.335,0.73,0.718,0.73c0.274,0,0.443-0.049,0.583-0.105l0.07,0.27
		c-0.135,0.062-0.37,0.137-0.705,0.137c-0.644,0-1.035-0.432-1.035-1.062c0-0.639,0.378-1.139,0.992-1.139
		c0.687,0,0.865,0.604,0.865,0.992c0,0.078-0.004,0.139-0.013,0.182L105.639,217.078z M106.756,216.805
		c0.004-0.24-0.1-0.623-0.526-0.623c-0.392,0-0.557,0.357-0.587,0.623H106.756z"/>
	<path fill="#324A5E" d="M107.782,215.572c-0.144,0-0.239-0.111-0.239-0.246c0-0.137,0.1-0.244,0.248-0.244s0.244,0.107,0.244,0.244
		c0,0.135-0.096,0.246-0.248,0.246H107.782z M107.6,218.064v-2.104h0.383v2.104H107.6z"/>
	<path fill="#324A5E" d="M110.378,217.49c0,0.219,0.004,0.41,0.018,0.574h-0.339l-0.021-0.344h-0.009
		c-0.096,0.17-0.322,0.393-0.696,0.393c-0.331,0-0.727-0.188-0.727-0.922v-1.23h0.383v1.16c0,0.4,0.126,0.674,0.47,0.674
		c0.257,0,0.435-0.178,0.504-0.352c0.022-0.053,0.035-0.121,0.035-0.195v-1.287h0.383V217.49z"/>
	<path fill="#324A5E" d="M110.96,217.678c0.118,0.07,0.317,0.148,0.509,0.148c0.274,0,0.405-0.135,0.405-0.314
		c0-0.182-0.109-0.281-0.387-0.387c-0.383-0.139-0.561-0.344-0.561-0.596c0-0.338,0.278-0.617,0.726-0.617
		c0.213,0,0.4,0.057,0.513,0.131l-0.091,0.273c-0.083-0.047-0.235-0.121-0.43-0.121c-0.227,0-0.348,0.131-0.348,0.287
		c0,0.178,0.122,0.256,0.396,0.361c0.361,0.135,0.552,0.316,0.552,0.635c0,0.373-0.292,0.635-0.783,0.635
		c-0.231,0-0.444-0.061-0.592-0.148L110.96,217.678z"/>
	<path fill="#324A5E" d="M112.734,216.529c0-0.221-0.009-0.395-0.017-0.568h0.334l0.018,0.338h0.013
		c0.117-0.199,0.313-0.387,0.665-0.387c0.283,0,0.5,0.174,0.592,0.422h0.008c0.065-0.121,0.152-0.209,0.239-0.273
		c0.126-0.096,0.261-0.148,0.461-0.148c0.283,0,0.696,0.184,0.696,0.914v1.238h-0.374v-1.191c0-0.408-0.152-0.648-0.457-0.648
		c-0.222,0-0.387,0.162-0.457,0.344c-0.018,0.057-0.03,0.127-0.03,0.191v1.305h-0.374v-1.26c0-0.34-0.148-0.58-0.439-0.58
		c-0.235,0-0.413,0.191-0.474,0.383c-0.021,0.057-0.03,0.123-0.03,0.188v1.27h-0.374V216.529z"/>
	<path fill="#324A5E" d="M117.217,218.113c-0.565,0-1.009-0.418-1.009-1.084c0-0.703,0.465-1.117,1.044-1.117
		c0.604,0,1.013,0.439,1.013,1.078c0,0.783-0.543,1.123-1.043,1.123H117.217z M117.23,217.826c0.366,0,0.64-0.344,0.64-0.822
		c0-0.357-0.179-0.805-0.631-0.805c-0.448,0-0.644,0.418-0.644,0.818c0,0.461,0.261,0.809,0.63,0.809H117.23z"/>
	<path fill="#324A5E" d="M120.57,214.977v2.545c0,0.188,0.004,0.4,0.018,0.543h-0.344l-0.018-0.365h-0.008
		c-0.118,0.234-0.37,0.414-0.713,0.414c-0.509,0-0.905-0.432-0.905-1.07c-0.004-0.705,0.435-1.131,0.944-1.131
		c0.326,0,0.543,0.152,0.635,0.318h0.009v-1.254H120.57z M120.187,216.816c0-0.051-0.004-0.113-0.017-0.164
		c-0.057-0.24-0.266-0.439-0.553-0.439c-0.396,0-0.63,0.348-0.63,0.809c0,0.43,0.213,0.783,0.622,0.783
		c0.256,0,0.491-0.174,0.561-0.457c0.013-0.053,0.017-0.105,0.017-0.166V216.816z"/>
	<path fill="#324A5E" d="M122.516,215.455v0.506h0.548v0.291h-0.548v1.135c0,0.262,0.074,0.408,0.287,0.408
		c0.104,0,0.165-0.008,0.222-0.025l0.018,0.291c-0.074,0.025-0.191,0.053-0.339,0.053c-0.178,0-0.322-0.061-0.413-0.162
		c-0.104-0.117-0.148-0.303-0.148-0.551v-1.148h-0.326v-0.291h0.326v-0.389L122.516,215.455z"/>
	<path fill="#324A5E" d="M123.686,217.078c0.009,0.518,0.335,0.73,0.718,0.73c0.274,0,0.443-0.049,0.583-0.105l0.07,0.27
		c-0.135,0.062-0.37,0.137-0.705,0.137c-0.644,0-1.035-0.432-1.035-1.062c0-0.639,0.378-1.139,0.992-1.139
		c0.687,0,0.865,0.604,0.865,0.992c0,0.078-0.004,0.139-0.013,0.182L123.686,217.078z M124.803,216.805
		c0.004-0.24-0.1-0.623-0.526-0.623c-0.392,0-0.557,0.357-0.587,0.623H124.803z"/>
	<path fill="#324A5E" d="M125.646,216.529c0-0.221-0.009-0.395-0.017-0.568h0.334l0.018,0.338h0.013
		c0.117-0.199,0.313-0.387,0.665-0.387c0.283,0,0.5,0.174,0.592,0.422h0.008c0.065-0.121,0.152-0.209,0.239-0.273
		c0.126-0.096,0.261-0.148,0.461-0.148c0.283,0,0.696,0.184,0.696,0.914v1.238h-0.374v-1.191c0-0.408-0.152-0.648-0.457-0.648
		c-0.222,0-0.387,0.162-0.457,0.344c-0.018,0.057-0.03,0.127-0.03,0.191v1.305h-0.374v-1.26c0-0.34-0.148-0.58-0.439-0.58
		c-0.235,0-0.413,0.191-0.474,0.383c-0.021,0.057-0.03,0.123-0.03,0.188v1.27h-0.374V216.529z"/>
	<path fill="#324A5E" d="M129.272,216.646c0-0.27-0.004-0.486-0.017-0.686h0.343l0.022,0.359h0.008
		c0.152-0.26,0.405-0.408,0.744-0.408c0.513,0,0.896,0.432,0.896,1.07c0,0.756-0.465,1.131-0.957,1.131
		c-0.283,0-0.522-0.123-0.648-0.33h-0.009v1.143h-0.383V216.646z M129.655,217.209c0,0.051,0.004,0.107,0.018,0.156
		c0.065,0.266,0.3,0.447,0.569,0.447c0.405,0,0.639-0.33,0.639-0.812c0-0.422-0.217-0.783-0.622-0.783
		c-0.261,0-0.509,0.182-0.583,0.469c-0.008,0.053-0.021,0.109-0.021,0.158V217.209z"/>
	<path fill="#324A5E" d="M132.607,218.113c-0.565,0-1.009-0.418-1.009-1.084c0-0.703,0.465-1.117,1.044-1.117
		c0.604,0,1.013,0.439,1.013,1.078c0,0.783-0.543,1.123-1.043,1.123H132.607z M132.62,217.826c0.366,0,0.64-0.344,0.64-0.822
		c0-0.357-0.179-0.805-0.631-0.805c-0.448,0-0.644,0.418-0.644,0.818c0,0.461,0.261,0.809,0.631,0.809H132.62z"/>
	<path fill="#324A5E" d="M134.142,216.617c0-0.248-0.004-0.461-0.018-0.656h0.335l0.018,0.412h0.013
		c0.096-0.283,0.33-0.461,0.587-0.461c0.039,0,0.069,0.004,0.104,0.014v0.355c-0.043-0.004-0.083-0.008-0.135-0.008
		c-0.27,0-0.461,0.205-0.513,0.486c-0.009,0.057-0.013,0.117-0.013,0.184v1.121h-0.383L134.142,216.617z"/>
	<path fill="#324A5E" d="M136.593,215.572c-0.144,0-0.239-0.111-0.239-0.246c0-0.137,0.1-0.244,0.248-0.244s0.244,0.107,0.244,0.244
		c0,0.135-0.096,0.246-0.248,0.246H136.593z M136.411,218.064v-2.104h0.383v2.104H136.411z"/>
	<path fill="#324A5E" d="M137.428,216.529c0-0.221-0.004-0.395-0.017-0.568h0.339l0.022,0.342h0.009
		c0.104-0.195,0.348-0.391,0.696-0.391c0.291,0,0.744,0.174,0.744,0.896v1.256h-0.383v-1.213c0-0.34-0.126-0.627-0.487-0.627
		c-0.248,0-0.443,0.18-0.513,0.393c-0.017,0.047-0.026,0.117-0.026,0.178v1.27h-0.383V216.529z"/>
	<path fill="#324A5E" d="M141.342,217.99c-0.1,0.049-0.322,0.123-0.604,0.123c-0.635,0-1.048-0.432-1.048-1.078
		c0-0.648,0.444-1.123,1.131-1.123c0.226,0,0.426,0.057,0.531,0.113l-0.087,0.291c-0.092-0.047-0.235-0.1-0.444-0.1
		c-0.483,0-0.744,0.361-0.744,0.801c0,0.486,0.313,0.787,0.73,0.787c0.218,0,0.361-0.053,0.47-0.102L141.342,217.99z"/>
	<path fill="#324A5E" d="M141.972,215.572c-0.144,0-0.239-0.111-0.239-0.246c0-0.137,0.1-0.244,0.248-0.244s0.244,0.107,0.244,0.244
		c0,0.135-0.096,0.246-0.248,0.246H141.972z M141.789,218.064v-2.104h0.383v2.104H141.789z"/>
	<path fill="#324A5E" d="M144.625,214.977v2.545c0,0.188,0.004,0.4,0.018,0.543h-0.344l-0.018-0.365h-0.008
		c-0.118,0.234-0.37,0.414-0.713,0.414c-0.509,0-0.905-0.432-0.905-1.07c-0.004-0.705,0.435-1.131,0.944-1.131
		c0.326,0,0.543,0.152,0.635,0.318h0.009v-1.254H144.625z M144.242,216.816c0-0.051-0.004-0.113-0.017-0.164
		c-0.057-0.24-0.266-0.439-0.553-0.439c-0.396,0-0.63,0.348-0.63,0.809c0,0.43,0.213,0.783,0.622,0.783
		c0.256,0,0.491-0.174,0.561-0.457c0.013-0.053,0.017-0.105,0.017-0.166V216.816z"/>
	<path fill="#324A5E" d="M145.441,215.572c-0.144,0-0.239-0.111-0.239-0.246c0-0.137,0.1-0.244,0.248-0.244s0.244,0.107,0.244,0.244
		c0,0.135-0.096,0.246-0.248,0.246H145.441z M145.259,218.064v-2.104h0.383v2.104H145.259z"/>
	<path fill="#324A5E" d="M148.094,214.977v2.545c0,0.188,0.004,0.4,0.018,0.543h-0.344l-0.018-0.365h-0.008
		c-0.118,0.234-0.37,0.414-0.713,0.414c-0.509,0-0.905-0.432-0.905-1.07c-0.004-0.705,0.435-1.131,0.944-1.131
		c0.326,0,0.543,0.152,0.635,0.318h0.009v-1.254H148.094z M147.711,216.816c0-0.051-0.004-0.113-0.017-0.164
		c-0.057-0.24-0.266-0.439-0.553-0.439c-0.396,0-0.63,0.348-0.63,0.809c0,0.43,0.213,0.783,0.622,0.783
		c0.256,0,0.491-0.174,0.561-0.457c0.013-0.053,0.017-0.105,0.017-0.166V216.816z"/>
	<path fill="#324A5E" d="M150.49,217.49c0,0.219,0.004,0.41,0.018,0.574h-0.339l-0.021-0.344h-0.009
		c-0.096,0.17-0.322,0.393-0.696,0.393c-0.331,0-0.727-0.188-0.727-0.922v-1.23h0.383v1.16c0,0.4,0.126,0.674,0.47,0.674
		c0.257,0,0.435-0.178,0.504-0.352c0.022-0.053,0.035-0.121,0.035-0.195v-1.287h0.383V217.49z"/>
	<path fill="#324A5E" d="M151.124,216.529c0-0.221-0.004-0.395-0.017-0.568h0.339l0.022,0.342h0.009
		c0.104-0.195,0.348-0.391,0.696-0.391c0.291,0,0.744,0.174,0.744,0.896v1.256h-0.383v-1.213c0-0.34-0.126-0.627-0.487-0.627
		c-0.248,0-0.443,0.18-0.513,0.393c-0.017,0.047-0.026,0.117-0.026,0.178v1.27h-0.383V216.529z"/>
	<path fill="#324A5E" d="M153.981,215.455v0.506h0.548v0.291h-0.548v1.135c0,0.262,0.074,0.408,0.287,0.408
		c0.104,0,0.165-0.008,0.222-0.025l0.018,0.291c-0.074,0.025-0.191,0.053-0.339,0.053c-0.178,0-0.322-0.061-0.413-0.162
		c-0.104-0.117-0.148-0.303-0.148-0.551v-1.148h-0.326v-0.291h0.326v-0.389L153.981,215.455z"/>
	<path fill="#324A5E" d="M157.571,217.49c0,0.219,0.004,0.41,0.018,0.574h-0.339l-0.021-0.344h-0.009
		c-0.096,0.17-0.322,0.393-0.696,0.393c-0.331,0-0.727-0.188-0.727-0.922v-1.23h0.383v1.16c0,0.4,0.126,0.674,0.47,0.674
		c0.257,0,0.435-0.178,0.504-0.352c0.022-0.053,0.035-0.121,0.035-0.195v-1.287h0.383V217.49z"/>
	<path fill="#324A5E" d="M158.666,215.455v0.506h0.548v0.291h-0.548v1.135c0,0.262,0.074,0.408,0.287,0.408
		c0.104,0,0.165-0.008,0.222-0.025l0.018,0.291c-0.074,0.025-0.191,0.053-0.339,0.053c-0.178,0-0.322-0.061-0.413-0.162
		c-0.104-0.117-0.148-0.303-0.148-0.551v-1.148h-0.326v-0.291h0.326v-0.389L158.666,215.455z"/>
	<path fill="#324A5E" d="M160.495,214.977h0.383v3.088h-0.383V214.977z"/>
	<path fill="#324A5E" d="M162.996,217.561c0,0.182,0.009,0.361,0.031,0.504h-0.344l-0.035-0.266h-0.013
		c-0.113,0.166-0.344,0.314-0.644,0.314c-0.426,0-0.644-0.301-0.644-0.605c0-0.508,0.452-0.787,1.265-0.783v-0.043
		c0-0.174-0.048-0.49-0.478-0.486c-0.2,0-0.405,0.057-0.552,0.156l-0.087-0.256c0.174-0.109,0.43-0.184,0.696-0.184
		c0.648,0,0.804,0.439,0.804,0.861V217.561z M162.622,216.99c-0.417-0.008-0.892,0.066-0.892,0.475c0,0.252,0.166,0.365,0.357,0.365
		c0.278,0,0.457-0.174,0.518-0.352c0.013-0.039,0.017-0.084,0.017-0.123V216.99z"/>
	<path fill="#324A5E" d="M163.608,214.977h0.383v1.318H164c0.135-0.234,0.378-0.383,0.717-0.383c0.522,0,0.887,0.436,0.887,1.07
		c0,0.756-0.479,1.131-0.948,1.131c-0.305,0-0.544-0.117-0.705-0.396h-0.009l-0.022,0.348h-0.33
		c0.013-0.143,0.017-0.355,0.017-0.543V214.977z M163.991,217.221c0,0.049,0.004,0.096,0.013,0.141
		c0.074,0.264,0.3,0.447,0.574,0.447c0.405,0,0.639-0.326,0.639-0.809c0-0.426-0.217-0.787-0.626-0.787
		c-0.261,0-0.504,0.182-0.579,0.469c-0.013,0.049-0.021,0.1-0.021,0.162V217.221z"/>
	<path fill="#324A5E" d="M166.944,218.113c-0.565,0-1.009-0.418-1.009-1.084c0-0.703,0.465-1.117,1.044-1.117
		c0.604,0,1.013,0.439,1.013,1.078c0,0.783-0.543,1.123-1.043,1.123H166.944z M166.957,217.826c0.366,0,0.64-0.344,0.64-0.822
		c0-0.357-0.179-0.805-0.631-0.805c-0.448,0-0.644,0.418-0.644,0.818c0,0.461,0.261,0.809,0.63,0.809H166.957z"/>
	<path fill="#324A5E" d="M168.479,216.617c0-0.248-0.004-0.461-0.018-0.656h0.335l0.018,0.412h0.013
		c0.095-0.283,0.33-0.461,0.587-0.461c0.039,0,0.068,0.004,0.104,0.014v0.355c-0.043-0.004-0.082-0.008-0.135-0.008
		c-0.27,0-0.461,0.205-0.513,0.486c-0.009,0.057-0.013,0.117-0.013,0.184v1.121h-0.383L168.479,216.617z"/>
	<path fill="#324A5E" d="M170.088,217.078c0.009,0.518,0.335,0.73,0.718,0.73c0.274,0,0.443-0.049,0.583-0.105l0.069,0.27
		c-0.135,0.062-0.37,0.137-0.704,0.137c-0.645,0-1.035-0.432-1.035-1.062c0-0.639,0.378-1.139,0.991-1.139
		c0.687,0,0.865,0.604,0.865,0.992c0,0.078-0.004,0.139-0.013,0.182L170.088,217.078z M171.205,216.805
		c0.005-0.24-0.1-0.623-0.525-0.623c-0.392,0-0.557,0.357-0.588,0.623H171.205z"/>
	<path fill="#324A5E" d="M173.117,217.078c0.008,0.518,0.334,0.73,0.717,0.73c0.274,0,0.443-0.049,0.583-0.105l0.069,0.27
		c-0.135,0.062-0.369,0.137-0.704,0.137c-0.644,0-1.035-0.432-1.035-1.062c0-0.639,0.378-1.139,0.991-1.139
		c0.688,0,0.865,0.604,0.865,0.992c0,0.078-0.004,0.139-0.012,0.182L173.117,217.078z M174.234,216.805
		c0.004-0.24-0.1-0.623-0.525-0.623c-0.393,0-0.557,0.357-0.588,0.623H174.234z"/>
	<path fill="#324A5E" d="M175.539,215.455v0.506h0.547v0.291h-0.547v1.135c0,0.262,0.074,0.408,0.287,0.408
		c0.104,0,0.164-0.008,0.221-0.025l0.018,0.291c-0.074,0.025-0.191,0.053-0.339,0.053c-0.179,0-0.321-0.061-0.413-0.162
		c-0.104-0.117-0.148-0.303-0.148-0.551v-1.148h-0.326v-0.291h0.326v-0.389L175.539,215.455z"/>
	<path fill="#324A5E" d="M179.186,214.977v2.545c0,0.188,0.004,0.4,0.018,0.543h-0.344l-0.018-0.365h-0.008
		c-0.118,0.234-0.37,0.414-0.714,0.414c-0.509,0-0.905-0.432-0.905-1.07c-0.004-0.705,0.436-1.131,0.944-1.131
		c0.326,0,0.544,0.152,0.635,0.318h0.009v-1.254H179.186z M178.803,216.816c0-0.051-0.004-0.113-0.018-0.164
		c-0.057-0.24-0.266-0.439-0.552-0.439c-0.396,0-0.631,0.348-0.631,0.809c0,0.43,0.213,0.783,0.622,0.783
		c0.256,0,0.491-0.174,0.561-0.457c0.014-0.053,0.018-0.105,0.018-0.166V216.816z"/>
	<path fill="#324A5E" d="M180.677,218.113c-0.565,0-1.009-0.418-1.009-1.084c0-0.703,0.465-1.117,1.043-1.117
		c0.605,0,1.014,0.439,1.014,1.078c0,0.783-0.543,1.123-1.043,1.123H180.677z M180.689,217.826c0.365,0,0.64-0.344,0.64-0.822
		c0-0.357-0.179-0.805-0.631-0.805c-0.448,0-0.644,0.418-0.644,0.818c0,0.461,0.261,0.809,0.631,0.809H180.689z"/>
	<path fill="#324A5E" d="M182.207,214.977h0.383v3.088h-0.383V214.977z"/>
	<path fill="#324A5E" d="M184.082,218.113c-0.566,0-1.01-0.418-1.01-1.084c0-0.703,0.465-1.117,1.044-1.117
		c0.604,0,1.013,0.439,1.013,1.078c0,0.783-0.543,1.123-1.043,1.123H184.082z M184.094,217.826c0.366,0,0.641-0.344,0.641-0.822
		c0-0.357-0.18-0.805-0.631-0.805c-0.448,0-0.645,0.418-0.645,0.818c0,0.461,0.262,0.809,0.631,0.809H184.094z"/>
	<path fill="#324A5E" d="M185.616,216.617c0-0.248-0.005-0.461-0.018-0.656h0.335l0.018,0.412h0.014
		c0.095-0.283,0.33-0.461,0.586-0.461c0.039,0,0.07,0.004,0.105,0.014v0.355c-0.044-0.004-0.084-0.008-0.135-0.008
		c-0.271,0-0.462,0.205-0.514,0.486c-0.009,0.057-0.014,0.117-0.014,0.184v1.121h-0.383L185.616,216.617z"/>
	<path fill="#324A5E" d="M187.226,217.078c0.009,0.518,0.335,0.73,0.718,0.73c0.273,0,0.443-0.049,0.582-0.105l0.07,0.27
		c-0.135,0.062-0.369,0.137-0.705,0.137c-0.643,0-1.035-0.432-1.035-1.062c0-0.639,0.379-1.139,0.992-1.139
		c0.688,0,0.865,0.604,0.865,0.992c0,0.078-0.004,0.139-0.013,0.182L187.226,217.078z M188.344,216.805
		c0.004-0.24-0.1-0.623-0.526-0.623c-0.392,0-0.557,0.357-0.587,0.623H188.344z"/>
	<path fill="#324A5E" d="M190.037,216.529c0-0.221-0.009-0.395-0.018-0.568h0.335l0.018,0.338h0.013
		c0.117-0.199,0.313-0.387,0.666-0.387c0.282,0,0.5,0.174,0.592,0.422h0.008c0.065-0.121,0.152-0.209,0.239-0.273
		c0.126-0.096,0.261-0.148,0.461-0.148c0.282,0,0.696,0.184,0.696,0.914v1.238h-0.375v-1.191c0-0.408-0.151-0.648-0.456-0.648
		c-0.222,0-0.387,0.162-0.456,0.344c-0.018,0.057-0.031,0.127-0.031,0.191v1.305h-0.373v-1.26c0-0.34-0.148-0.58-0.439-0.58
		c-0.235,0-0.414,0.191-0.475,0.383c-0.021,0.057-0.03,0.123-0.03,0.188v1.27h-0.374V216.529z"/>
	<path fill="#324A5E" d="M195.146,217.561c0,0.182,0.008,0.361,0.03,0.504h-0.344l-0.034-0.266h-0.014
		c-0.113,0.166-0.344,0.314-0.644,0.314c-0.427,0-0.644-0.301-0.644-0.605c0-0.508,0.452-0.787,1.266-0.783v-0.043
		c0-0.174-0.049-0.49-0.479-0.486c-0.2,0-0.404,0.057-0.553,0.156l-0.086-0.256c0.174-0.109,0.43-0.184,0.695-0.184
		c0.648,0,0.805,0.439,0.805,0.861V217.561z M194.771,216.99c-0.417-0.008-0.891,0.066-0.891,0.475c0,0.252,0.165,0.365,0.356,0.365
		c0.278,0,0.456-0.174,0.518-0.352c0.013-0.039,0.017-0.084,0.017-0.123V216.99z"/>
	<path fill="#324A5E" d="M197.559,217.756c0,0.488-0.1,0.779-0.299,0.965c-0.209,0.188-0.505,0.254-0.771,0.254
		c-0.252,0-0.53-0.062-0.7-0.174l0.096-0.297c0.139,0.092,0.357,0.17,0.617,0.17c0.393,0,0.679-0.205,0.679-0.74v-0.23h-0.009
		c-0.113,0.197-0.344,0.354-0.67,0.354c-0.521,0-0.896-0.443-0.896-1.031c0-0.713,0.466-1.113,0.952-1.113
		c0.365,0,0.562,0.188,0.657,0.361h0.009l0.013-0.312h0.339c-0.013,0.146-0.018,0.316-0.018,0.574V217.756z M197.177,216.787
		c0-0.062-0.005-0.117-0.022-0.17c-0.068-0.227-0.252-0.408-0.534-0.408c-0.366,0-0.626,0.309-0.626,0.799
		c0,0.408,0.213,0.758,0.621,0.758c0.24,0,0.453-0.148,0.531-0.396c0.021-0.061,0.03-0.135,0.03-0.205V216.787z"/>
	<path fill="#324A5E" d="M198.189,216.529c0-0.221-0.004-0.395-0.018-0.568h0.34l0.021,0.342h0.009
		c0.104-0.195,0.348-0.391,0.696-0.391c0.291,0,0.743,0.174,0.743,0.896v1.256h-0.383v-1.213c0-0.34-0.126-0.627-0.487-0.627
		c-0.248,0-0.443,0.18-0.514,0.393c-0.017,0.047-0.025,0.117-0.025,0.178v1.27h-0.383V216.529z"/>
	<path fill="#324A5E" d="M202.086,217.561c0,0.182,0.008,0.361,0.03,0.504h-0.344l-0.034-0.266h-0.014
		c-0.113,0.166-0.344,0.314-0.644,0.314c-0.427,0-0.644-0.301-0.644-0.605c0-0.508,0.452-0.787,1.266-0.783v-0.043
		c0-0.174-0.049-0.49-0.479-0.486c-0.2,0-0.404,0.057-0.553,0.156l-0.086-0.256c0.174-0.109,0.43-0.184,0.695-0.184
		c0.648,0,0.805,0.439,0.805,0.861V217.561z M201.711,216.99c-0.417-0.008-0.891,0.066-0.891,0.475c0,0.252,0.165,0.365,0.356,0.365
		c0.278,0,0.456-0.174,0.518-0.352c0.013-0.039,0.017-0.084,0.017-0.123V216.99z"/>
	<path fill="#324A5E" d="M205.031,217.561c0,0.182,0.01,0.361,0.031,0.504h-0.344l-0.035-0.266h-0.013
		c-0.113,0.166-0.344,0.314-0.644,0.314c-0.426,0-0.644-0.301-0.644-0.605c0-0.508,0.452-0.787,1.265-0.783v-0.043
		c0-0.174-0.047-0.49-0.478-0.486c-0.2,0-0.405,0.057-0.552,0.156l-0.088-0.256c0.174-0.109,0.431-0.184,0.696-0.184
		c0.647,0,0.804,0.439,0.804,0.861V217.561z M204.658,216.99c-0.418-0.008-0.893,0.066-0.893,0.475c0,0.252,0.166,0.365,0.357,0.365
		c0.278,0,0.457-0.174,0.518-0.352c0.013-0.039,0.018-0.084,0.018-0.123V216.99z"/>
	<path fill="#324A5E" d="M205.645,214.977h0.383v3.088h-0.383V214.977z"/>
	<path fill="#324A5E" d="M206.845,215.572c-0.144,0-0.239-0.111-0.239-0.246c0-0.137,0.1-0.244,0.248-0.244s0.244,0.107,0.244,0.244
		c0,0.135-0.096,0.246-0.248,0.246H206.845z M206.662,218.064v-2.104h0.383v2.104H206.662z"/>
	<path fill="#324A5E" d="M209.115,217.742h-0.01c-0.112,0.205-0.348,0.371-0.687,0.371c-0.491,0-0.892-0.422-0.892-1.066
		c0-0.787,0.509-1.135,0.953-1.135c0.326,0,0.543,0.16,0.647,0.365h0.009l0.013-0.316h0.366c-0.014,0.174-0.018,0.355-0.018,0.578
		v2.387h-0.383V217.742z M209.115,216.812c0-0.057-0.005-0.113-0.018-0.16c-0.061-0.236-0.262-0.436-0.549-0.436
		c-0.395,0-0.635,0.334-0.635,0.809c0,0.422,0.201,0.783,0.623,0.783c0.247,0,0.461-0.152,0.547-0.418
		c0.018-0.053,0.031-0.125,0.031-0.182V216.812z"/>
	<path fill="#324A5E" d="M211.889,217.49c0,0.219,0.004,0.41,0.018,0.574h-0.34l-0.021-0.344h-0.008
		c-0.096,0.17-0.322,0.393-0.696,0.393c-0.331,0-0.727-0.188-0.727-0.922v-1.23h0.383v1.16c0,0.4,0.126,0.674,0.47,0.674
		c0.257,0,0.436-0.178,0.504-0.352c0.022-0.053,0.035-0.121,0.035-0.195v-1.287h0.383V217.49z"/>
	<path fill="#324A5E" d="M214.006,217.561c0,0.182,0.009,0.361,0.031,0.504h-0.344l-0.035-0.266h-0.014
		c-0.113,0.166-0.344,0.314-0.643,0.314c-0.427,0-0.645-0.301-0.645-0.605c0-0.508,0.453-0.787,1.266-0.783v-0.043
		c0-0.174-0.048-0.49-0.479-0.486c-0.199,0-0.404,0.057-0.552,0.156l-0.087-0.256c0.174-0.109,0.43-0.184,0.695-0.184
		c0.648,0,0.805,0.439,0.805,0.861V217.561z M213.632,216.99c-0.417-0.008-0.892,0.066-0.892,0.475c0,0.252,0.166,0.365,0.357,0.365
		c0.277,0,0.456-0.174,0.518-0.352c0.012-0.039,0.017-0.084,0.017-0.123V216.99z"/>
	<path fill="#324A5E" d="M214.779,218.113c-0.147,0-0.252-0.117-0.252-0.275c0-0.156,0.109-0.273,0.261-0.273
		c0.152,0,0.257,0.113,0.257,0.273c0,0.158-0.104,0.275-0.261,0.275H214.779z"/>
	<path fill="#324A5E" d="M216.439,215.135v1.738c0,0.652,0.291,0.932,0.683,0.932c0.431,0,0.714-0.287,0.714-0.932v-1.738h0.382
		v1.713c0,0.9-0.474,1.266-1.108,1.266c-0.601,0-1.053-0.34-1.053-1.254v-1.725H216.439z"/>
	<path fill="#324A5E" d="M219.339,215.455v0.506h0.548v0.291h-0.548v1.135c0,0.262,0.074,0.408,0.287,0.408
		c0.104,0,0.165-0.008,0.222-0.025l0.018,0.291c-0.074,0.025-0.191,0.053-0.34,0.053c-0.178,0-0.321-0.061-0.412-0.162
		c-0.105-0.117-0.148-0.303-0.148-0.551v-1.148h-0.326v-0.291h0.326v-0.389L219.339,215.455z"/>
	<path fill="#324A5E" d="M221.385,217.078c0.009,0.518,0.335,0.73,0.718,0.73c0.274,0,0.443-0.049,0.583-0.105l0.069,0.27
		c-0.135,0.062-0.37,0.137-0.704,0.137c-0.645,0-1.035-0.432-1.035-1.062c0-0.639,0.378-1.139,0.991-1.139
		c0.687,0,0.865,0.604,0.865,0.992c0,0.078-0.004,0.139-0.013,0.182L221.385,217.078z M222.502,216.805
		c0.005-0.24-0.1-0.623-0.525-0.623c-0.392,0-0.557,0.357-0.588,0.623H222.502z"/>
	<path fill="#324A5E" d="M223.346,216.529c0-0.221-0.004-0.395-0.018-0.568h0.34l0.021,0.342h0.009
		c0.104-0.195,0.348-0.391,0.696-0.391c0.291,0,0.743,0.174,0.743,0.896v1.256h-0.383v-1.213c0-0.34-0.126-0.627-0.487-0.627
		c-0.248,0-0.443,0.18-0.514,0.393c-0.017,0.047-0.025,0.117-0.025,0.178v1.27h-0.383V216.529z"/>
	<path fill="#324A5E" d="M225.941,215.572c-0.144,0-0.239-0.111-0.239-0.246c0-0.137,0.101-0.244,0.248-0.244
		s0.243,0.107,0.243,0.244c0,0.135-0.096,0.246-0.248,0.246H225.941z M225.759,218.064v-2.104h0.383v2.104H225.759z"/>
	<path fill="#324A5E" d="M226.776,216.529c0-0.221-0.009-0.395-0.017-0.568h0.334l0.018,0.338h0.014
		c0.117-0.199,0.312-0.387,0.664-0.387c0.283,0,0.501,0.174,0.592,0.422h0.009c0.065-0.121,0.152-0.209,0.239-0.273
		c0.126-0.096,0.262-0.148,0.461-0.148c0.283,0,0.695,0.184,0.695,0.914v1.238h-0.373v-1.191c0-0.408-0.152-0.648-0.457-0.648
		c-0.222,0-0.387,0.162-0.457,0.344c-0.018,0.057-0.029,0.127-0.029,0.191v1.305h-0.375v-1.26c0-0.34-0.147-0.58-0.439-0.58
		c-0.234,0-0.412,0.191-0.474,0.383c-0.021,0.057-0.03,0.123-0.03,0.188v1.27h-0.374V216.529z"/>
</g>
<g>
	<path fill="#324A5E" d="M112.811,200.01l1.462-6.559h2.385l-2.612,9.455h-2.371l-1.917-7.098l-1.917,7.098h-2.371l-2.612-9.455
		h2.385l1.462,6.559l1.76-6.559h2.584L112.811,200.01z"/>
	<path fill="#324A5E" d="M126.88,198.18c0,0.672-0.109,1.303-0.326,1.895c-0.218,0.592-0.533,1.109-0.944,1.555
		s-0.916,0.797-1.512,1.059c-0.596,0.26-1.277,0.389-2.044,0.389c-0.767,0-1.45-0.129-2.051-0.389
		c-0.601-0.262-1.107-0.613-1.519-1.059s-0.724-0.963-0.937-1.555s-0.319-1.223-0.319-1.895s0.106-1.305,0.319-1.896
		s0.525-1.109,0.937-1.555c0.412-0.443,0.918-0.797,1.519-1.057s1.285-0.391,2.051-0.391c0.767,0,1.448,0.131,2.044,0.391
		c0.597,0.26,1.101,0.613,1.512,1.057c0.412,0.445,0.726,0.963,0.944,1.555C126.771,196.875,126.88,197.508,126.88,198.18z
		 M122.053,201.232c0.407,0,0.767-0.076,1.079-0.229c0.312-0.15,0.575-0.361,0.788-0.631s0.371-0.592,0.476-0.967
		c0.104-0.373,0.156-0.781,0.156-1.227s-0.052-0.855-0.156-1.229c-0.104-0.373-0.263-0.695-0.476-0.965
		c-0.213-0.271-0.476-0.48-0.788-0.633c-0.312-0.15-0.672-0.227-1.079-0.227c-0.417,0-0.778,0.076-1.086,0.227
		c-0.308,0.152-0.568,0.361-0.781,0.633c-0.213,0.27-0.372,0.592-0.476,0.965c-0.104,0.373-0.156,0.783-0.156,1.229
		s0.052,0.854,0.156,1.227c0.104,0.375,0.263,0.697,0.476,0.967s0.473,0.48,0.781,0.631
		C121.275,201.156,121.637,201.232,122.053,201.232z"/>
	<path fill="#324A5E" d="M135.413,196.447c0,0.635-0.177,1.188-0.532,1.66c-0.355,0.475-0.85,0.834-1.484,1.08l3.109,3.719h-2.868
		l-2.598-3.279h-0.426v3.279h-2.328v-9.455h3.01c0.587,0,1.131,0.062,1.633,0.186c0.501,0.123,0.937,0.307,1.306,0.553
		s0.658,0.557,0.866,0.93C135.309,195.494,135.413,195.936,135.413,196.447z M133.17,196.49c0-0.426-0.166-0.74-0.497-0.945
		c-0.331-0.203-0.795-0.305-1.391-0.305h-0.667v2.654h0.568c0.625,0,1.112-0.123,1.462-0.369S133.17,196.934,133.17,196.49z"/>
	<path fill="#324A5E" d="M137.358,202.906v-9.455h2.328v4.529l2.981-4.529h2.626l-3.194,4.672l3.422,4.783h-2.797l-3.039-4.627
		v4.627H137.358z"/>
	<path fill="#324A5E" d="M151.896,202.906h-2.329v-9.455h2.329V202.906z"/>
	<path fill="#324A5E" d="M159.96,202.906l-3.904-5.637v5.637h-2.243v-9.455h2.243l3.904,5.637v-5.637h2.243v9.455H159.96z"/>
	<path fill="#324A5E" d="M173.944,196.531c0,0.502-0.108,0.951-0.326,1.35s-0.519,0.73-0.901,1
		c-0.384,0.271-0.836,0.477-1.356,0.619c-0.521,0.141-1.084,0.213-1.689,0.213h-0.241v3.193h-2.329v-9.455h2.726
		c0.597,0,1.147,0.062,1.654,0.186c0.506,0.123,0.941,0.309,1.306,0.561c0.364,0.25,0.648,0.57,0.852,0.957
		C173.843,195.543,173.944,196.002,173.944,196.531z M171.701,196.547c0-0.871-0.62-1.307-1.859-1.307h-0.412v2.684h0.383
		c0.615,0,1.084-0.123,1.406-0.369C171.54,197.309,171.701,196.973,171.701,196.547z"/>
	<path fill="#324A5E" d="M182.164,196.447c0,0.635-0.177,1.188-0.532,1.66c-0.354,0.475-0.85,0.834-1.483,1.08l3.109,3.719h-2.868
		l-2.598-3.279h-0.427v3.279h-2.328v-9.455h3.01c0.587,0,1.131,0.062,1.633,0.186s0.938,0.307,1.307,0.553s0.657,0.557,0.865,0.93
		C182.061,195.494,182.164,195.936,182.164,196.447z M179.921,196.49c0-0.426-0.165-0.74-0.497-0.945
		c-0.331-0.203-0.795-0.305-1.391-0.305h-0.668v2.654h0.568c0.625,0,1.112-0.123,1.462-0.369
		C179.746,197.279,179.921,196.934,179.921,196.49z"/>
	<path fill="#324A5E" d="M193.21,198.18c0,0.672-0.109,1.303-0.326,1.895c-0.219,0.592-0.533,1.109-0.944,1.555
		c-0.412,0.445-0.916,0.797-1.513,1.059c-0.596,0.26-1.277,0.389-2.044,0.389s-1.45-0.129-2.052-0.389
		c-0.601-0.262-1.107-0.613-1.519-1.059c-0.412-0.445-0.725-0.963-0.938-1.555s-0.319-1.223-0.319-1.895s0.106-1.305,0.319-1.896
		s0.525-1.109,0.938-1.555c0.411-0.443,0.918-0.797,1.519-1.057c0.602-0.26,1.285-0.391,2.052-0.391s1.448,0.131,2.044,0.391
		c0.597,0.26,1.101,0.613,1.513,1.057c0.411,0.445,0.726,0.963,0.944,1.555C193.101,196.875,193.21,197.508,193.21,198.18z
		 M188.383,201.232c0.407,0,0.767-0.076,1.079-0.229c0.312-0.15,0.575-0.361,0.788-0.631s0.371-0.592,0.476-0.967
		c0.104-0.373,0.156-0.781,0.156-1.227s-0.053-0.855-0.156-1.229c-0.104-0.373-0.263-0.695-0.476-0.965
		c-0.213-0.271-0.476-0.48-0.788-0.633c-0.312-0.15-0.672-0.227-1.079-0.227c-0.417,0-0.778,0.076-1.086,0.227
		c-0.308,0.152-0.568,0.361-0.781,0.633c-0.213,0.27-0.371,0.592-0.476,0.965s-0.156,0.783-0.156,1.229s0.052,0.854,0.156,1.227
		c0.104,0.375,0.263,0.697,0.476,0.967s0.474,0.48,0.781,0.631C187.604,201.156,187.966,201.232,188.383,201.232z"/>
	<path fill="#324A5E" d="M199.441,193.281c1.23,0,2.263,0.191,3.096,0.578l-0.312,1.75c-0.814-0.322-1.666-0.482-2.556-0.482
		c-0.474,0-0.899,0.061-1.277,0.184c-0.379,0.123-0.703,0.314-0.973,0.576c-0.27,0.26-0.479,0.592-0.625,0.994
		s-0.22,0.881-0.22,1.439c0,0.984,0.258,1.729,0.773,2.23s1.275,0.752,2.278,0.752c0.218,0,0.427-0.018,0.625-0.051
		c0.199-0.033,0.364-0.072,0.497-0.119v-2.641h2.087v3.898c-0.407,0.199-0.925,0.365-1.555,0.494
		c-0.63,0.127-1.285,0.191-1.966,0.191c-0.796,0-1.505-0.115-2.13-0.348c-0.625-0.23-1.155-0.555-1.59-0.973
		c-0.436-0.416-0.77-0.914-1.001-1.496c-0.232-0.582-0.348-1.229-0.348-1.939c0-0.756,0.115-1.445,0.348-2.064
		c0.231-0.621,0.57-1.15,1.015-1.59c0.445-0.441,0.989-0.781,1.633-1.023C197.885,193.402,198.618,193.281,199.441,193.281z"/>
	<path fill="#324A5E" d="M211.666,196.447c0,0.635-0.178,1.188-0.532,1.66c-0.355,0.475-0.85,0.834-1.484,1.08l3.109,3.719h-2.867
		l-2.599-3.279h-0.426v3.279h-2.328v-9.455h3.01c0.587,0,1.131,0.062,1.633,0.186c0.501,0.123,0.937,0.307,1.306,0.553
		s0.658,0.557,0.866,0.93C211.562,195.494,211.666,195.936,211.666,196.447z M209.423,196.49c0-0.426-0.166-0.74-0.497-0.945
		c-0.331-0.203-0.795-0.305-1.392-0.305h-0.667v2.654h0.567c0.625,0,1.112-0.123,1.463-0.369
		C209.247,197.279,209.423,196.934,209.423,196.49z"/>
	<path fill="#324A5E" d="M213.61,193.451h5.893v1.846h-3.564v1.902h3.394v1.846h-3.394v2.016h3.606v1.846h-5.935V193.451z"/>
	<path fill="#324A5E" d="M227.354,200.082c0,0.416-0.083,0.807-0.249,1.17c-0.165,0.365-0.404,0.682-0.717,0.951
		c-0.312,0.271-0.69,0.484-1.136,0.641c-0.444,0.154-0.951,0.232-1.519,0.232c-0.521,0-1.042-0.057-1.562-0.17
		s-1.003-0.279-1.447-0.496l0.468-1.775c0.331,0.162,0.705,0.301,1.122,0.42c0.416,0.117,0.866,0.178,1.349,0.178
		c0.397,0,0.724-0.074,0.979-0.221s0.384-0.387,0.384-0.717c0-0.236-0.111-0.453-0.334-0.646s-0.627-0.4-1.214-0.617
		c-0.928-0.35-1.604-0.75-2.03-1.199c-0.426-0.451-0.639-1.025-0.639-1.727c0-0.918,0.3-1.617,0.901-2.1
		c0.601-0.484,1.432-0.725,2.491-0.725c0.54,0,1.056,0.059,1.548,0.178c0.492,0.117,0.908,0.271,1.249,0.461l-0.397,1.746
		c-0.331-0.16-0.693-0.291-1.086-0.391s-0.797-0.148-1.214-0.148c-0.351,0-0.632,0.059-0.845,0.178
		c-0.213,0.117-0.319,0.318-0.319,0.604c0,0.133,0.019,0.246,0.057,0.34c0.038,0.096,0.106,0.186,0.206,0.27
		c0.1,0.086,0.239,0.17,0.419,0.256s0.406,0.186,0.682,0.299c0.397,0.16,0.771,0.33,1.121,0.51c0.351,0.18,0.653,0.389,0.909,0.625
		c0.255,0.236,0.456,0.508,0.603,0.811C227.28,199.32,227.354,199.674,227.354,200.082z"/>
	<path fill="#324A5E" d="M234.878,200.082c0,0.416-0.083,0.807-0.249,1.17c-0.165,0.365-0.404,0.682-0.717,0.951
		c-0.312,0.271-0.69,0.484-1.136,0.641c-0.444,0.154-0.951,0.232-1.519,0.232c-0.521,0-1.042-0.057-1.562-0.17
		s-1.003-0.279-1.447-0.496l0.468-1.775c0.331,0.162,0.705,0.301,1.122,0.42c0.416,0.117,0.866,0.178,1.349,0.178
		c0.397,0,0.724-0.074,0.979-0.221s0.384-0.387,0.384-0.717c0-0.236-0.111-0.453-0.334-0.646s-0.627-0.4-1.214-0.617
		c-0.928-0.35-1.604-0.75-2.03-1.199c-0.426-0.451-0.639-1.025-0.639-1.727c0-0.918,0.3-1.617,0.901-2.1
		c0.601-0.484,1.432-0.725,2.491-0.725c0.54,0,1.056,0.059,1.548,0.178c0.492,0.117,0.908,0.271,1.249,0.461l-0.397,1.746
		c-0.331-0.16-0.693-0.291-1.086-0.391s-0.797-0.148-1.214-0.148c-0.351,0-0.632,0.059-0.845,0.178
		c-0.213,0.117-0.319,0.318-0.319,0.604c0,0.133,0.019,0.246,0.057,0.34c0.038,0.096,0.106,0.186,0.206,0.27
		c0.1,0.086,0.239,0.17,0.419,0.256s0.406,0.186,0.682,0.299c0.397,0.16,0.771,0.33,1.121,0.51c0.351,0.18,0.653,0.389,0.909,0.625
		c0.255,0.236,0.456,0.508,0.603,0.811C234.805,199.32,234.878,199.674,234.878,200.082z"/>
</g>
<g>
	<path fill="#FFFFFF" d="M168.308,143.603c-18.165,0-32.942-14.728-32.942-32.831h3c0,16.449,13.432,29.831,29.942,29.831
		c16.512,0,29.944-13.382,29.944-29.831h3C201.252,128.875,186.474,143.603,168.308,143.603z"/>
</g>
<g>
	<rect x="128.911" y="140.603" fill="#FFFFFF" width="77.507" height="3"/>
</g>
<g>
	<ellipse fill="#0F2534" cx="206.146" cy="142.103" rx="3.471" ry="3.461"/>
</g>
<g>
	<path fill="#0F2534" d="M171.503,142.103c0,1.912-1.558,3.461-3.47,3.461c-1.917,0-3.473-1.549-3.473-3.461
		c0-1.91,1.556-3.457,3.473-3.457C169.945,138.646,171.503,140.192,171.503,142.103z"/>
</g>
<g>
	<path fill="#FFFFFF" d="M141.699,110.771c0,2.658-2.165,4.812-4.834,4.812c-2.666,0-4.834-2.154-4.834-4.812
		c0-2.657,2.168-4.815,4.834-4.815C139.534,105.956,141.699,108.114,141.699,110.771z"/>
</g>
<g>
	<path fill="#FFFFFF" d="M204.586,110.771c0,2.658-2.165,4.812-4.834,4.812c-2.666,0-4.834-2.154-4.834-4.812
		c0-2.657,2.168-4.815,4.834-4.815C202.421,105.956,204.586,108.114,204.586,110.771z"/>
</g>
<g>
	<path fill="#FFFFFF" d="M172.827,142.104c0,2.658-2.165,4.812-4.834,4.812c-2.665,0-4.833-2.154-4.833-4.812
		s2.168-4.816,4.833-4.816C170.662,137.288,172.827,139.446,172.827,142.104z"/>
</g>
<g>
	<path fill="#FFFFFF" d="M210.98,142.104c0,2.658-2.166,4.812-4.834,4.812c-2.666,0-4.834-2.154-4.834-4.812
		s2.168-4.816,4.834-4.816C208.814,137.288,210.98,139.446,210.98,142.104z"/>
</g>
<g>
	<path fill="#FFFFFF" d="M135.266,142.104c0,2.658-2.165,4.812-4.834,4.812c-2.666,0-4.834-2.154-4.834-4.812
		s2.168-4.816,4.834-4.816C133.101,137.288,135.266,139.446,135.266,142.104z"/>
</g>
<g>
	<ellipse fill="#FFFFFF" cx="199.753" cy="110.772" rx="3.471" ry="3.459"/>
</g>
<g>
	<ellipse fill="#FFFFFF" cx="167.593" cy="142.103" rx="3.471" ry="3.459"/>
</g>
<g>
	<g>
		<g>
			<path fill="#324A5E" d="M140.149,19.884c0-1.553-1.272-2.822-2.829-2.822H25.308c-1.559,0-2.831,1.27-2.831,2.822v5.449h117.672
				V19.884z"/>
		</g>
		<g>
			<path fill="#6E9FBD" d="M22.477,25.333V94.56c0,1.551,1.272,2.819,2.831,2.819H137.32c1.557,0,2.829-1.269,2.829-2.819V25.333
				H22.477z"/>
		</g>
	</g>
	<g>
		<rect x="22.477" y="25.333" fill="#E6E9EE" width="117.672" height="8.609"/>
	</g>
	<g>
		<g>
			<ellipse fill="#FFEF5A" cx="134.004" cy="21.26" rx="2.301" ry="2.293"/>
		</g>
		<g>
			<ellipse fill="#FFFDFE" cx="126.94" cy="21.2" rx="2.302" ry="2.292"/>
		</g>
		<g>
			<ellipse fill="#90EAFE" cx="119.975" cy="21.2" rx="2.302" ry="2.292"/>
		</g>
	</g>
	<g>
		<polygon fill="#E7E9ED" points="47.564,25.333 26.007,25.333 26.952,20.793 46.621,20.793 		"/>
	</g>
	<g>
		<polygon fill="#CDD5E0" points="69.124,25.333 47.564,25.333 48.51,20.793 68.18,20.793 		"/>
	</g>
	<g>
		<rect x="40.605" y="27.001" fill="#FFFFFF" width="95.699" height="5.274"/>
	</g>
</g>
<g>
	<g>
		<polygon fill="#FFFFFF" points="177.36,115.956 167.813,129.419 160.258,115.956 		"/>
	</g>
	<g>
		<g>
			<polygon fill="#FF8869" points="168.301,57.031 160.258,57.07 160.258,115.956 168.301,115.956 			"/>
		</g>
		<g>
			<polygon fill="#FF9D84" points="168.301,115.956 177.36,115.956 177.36,56.987 168.301,57.031 			"/>
		</g>
		<g>
			<polygon fill="#416785" points="168.301,34.927 160.258,34.927 160.258,57.07 168.301,57.031 			"/>
		</g>
		<g>
			<polygon fill="#36566F" points="177.36,56.987 177.36,34.927 168.301,34.927 168.301,57.031 			"/>
		</g>
	</g>
	<g>
		<polygon fill="#2D264A" points="165.727,125.683 170.463,125.683 167.813,129.419 		"/>
	</g>
</g>
<g>
	<g>
		<path fill-rule="evenodd" clip-rule="evenodd" fill="#FF9D84" d="M34.903,64.425c0-9.098,7.003-16.548,15.909-17.283v14.389
			c0,2.396,1.946,4.338,4.341,4.338h14.389c-0.735,8.907-8.185,15.908-17.283,15.908C42.675,81.777,34.903,74.005,34.903,64.425z"/>
	</g>
	<g>
		<path fill-rule="evenodd" clip-rule="evenodd" fill="#324A5E" d="M53.706,58.638V54.3v-7.158v-2.896
			c10.022,0.711,18.019,8.707,18.727,18.732h-2.891h-7.16h-4.337C55.648,62.978,53.706,61.035,53.706,58.638z"/>
	</g>
</g>
<g>
	<polyline fill="#324A5E" points="253.196,144.394 262.321,135.397 303.818,177.501 294.693,186.495 	"/>
</g>
<g>
	
		<rect x="291.2" y="181.228" transform="matrix(0.7121 -0.702 0.702 0.7121 -43.4695 258.2146)" fill="#3E174D" width="3.867" height="1.772"/>
</g>
<g>
	
		<rect x="288.802" y="178.796" transform="matrix(0.7125 -0.7017 0.7017 0.7125 -42.493 255.6516)" fill="#7BA9A3" width="3.866" height="1.771"/>
</g>
<g>
	
		<rect x="285.818" y="175.002" transform="matrix(0.7124 -0.7018 0.7018 0.7124 -40.1369 253.8339)" fill="#7BA9A3" width="7.617" height="1.769"/>
</g>
<g>
	
		<rect x="259.374" y="148.918" transform="matrix(0.7121 -0.702 0.702 0.7121 -29.9478 226.5705)" fill="#7BA9A3" width="3.867" height="1.772"/>
</g>
<g>
	
		<rect x="261.278" y="150.082" transform="matrix(0.7121 -0.7021 0.7021 0.7121 -29.6702 229.5789)" fill="#7BA9A3" width="7.617" height="1.768"/>
</g>
<g>
	
		<rect x="257.152" y="146.665" transform="matrix(0.7119 -0.7023 0.7023 0.7119 -28.9773 224.4656)" fill="#7BA9A3" width="3.868" height="1.769"/>
</g>
<g>
	<polygon fill="#36566F" points="21.974,113.252 62.778,113.252 83.402,135.009 83.402,193.95 21.974,193.95 	"/>
</g>
<g>
	<polygon fill="#6E9FBD" points="83.303,135.022 62.878,135.022 62.878,113.252 	"/>
</g>
<g>
	<rect x="33.081" y="160.626" fill="#FF8869" width="13.15" height="39.379"/>
</g>
<g>
	<polygon fill="#FFFFFF" points="36.934,153.603 42.148,153.603 46.23,160.626 33.081,160.626 	"/>
</g>
<g>
	<polygon fill="#3E174D" points="39.657,149.071 36.934,153.603 42.148,153.603 	"/>
</g>
<g>
	<rect x="33.081" y="194.419" fill="#FF8869" width="13.15" height="5.586"/>
</g>
<g>
	<rect x="33.081" y="160.626" fill="#FF9D84" width="6.369" height="39.379"/>
</g>
<g opacity="0.1">
	<rect x="33.081" y="194.419" fill="#FFFFFF" width="6.369" height="5.586"/>
</g>
<g>
	<path fill="#FF9D84" d="M226.848,16.986c1.1,0,2,0.899,2,2V41.95c0,1.1-0.9,2-2,2h-4.14c-1.101,0-2.614,0.658-3.364,1.462
		l-4.395,4.708c-0.75,0.804-1.364,0.562-1.364-0.538V45.95c0-1.1-0.899-2-2-2h-20.929c-1.1,0-2-0.9-2-2V18.986c0-1.101,0.9-2,2-2
		H226.848z"/>
</g>
<g>
	<circle fill="#36566F" cx="197.874" cy="29.921" r="3.261"/>
</g>
<g>
	<circle fill="#36566F" cx="208.242" cy="29.921" r="3.26"/>
</g>
<g>
	<circle fill="#36566F" cx="218.611" cy="29.921" r="3.26"/>
</g>
<g>
	<rect x="81.868" y="46.507" fill="#FFFFFF" width="46.472" height="6.532"/>
</g>
<g>
	<rect x="81.868" y="59.567" fill="#FFFFFF" width="38.021" height="3.264"/>
</g>
<g>
	<rect x="29.452" y="121.257" fill="#FFFFFF" width="28.248" height="6.533"/>
</g>
<g>
	<rect x="29.452" y="134.317" fill="#FFFFFF" width="28.248" height="3.264"/>
</g>
<g>
	<rect x="81.868" y="69.358" fill="#FFFFFF" width="44.357" height="3.264"/>
</g>
<g>
	<rect x="81.868" y="79.149" fill="#FFFFFF" width="25.348" height="3.264"/>
</g>
<g>
	<rect x="53.746" y="149.132" fill="#FFFFFF" width="21.704" height="3.264"/>
</g>
<g>
	<rect x="53.746" y="158.923" fill="#FFFFFF" width="13.787" height="3.264"/>
</g>
<g>
	<rect x="53.746" y="168.894" fill="#FFFFFF" width="21.704" height="3.264"/>
</g>
<g>
	<rect x="53.746" y="178.685" fill="#FFFFFF" width="21.704" height="3.264"/>
</g>
<g>
	<path fill="#6E9FBD" d="M310.688,96.585c0,2.293-1.875,4.167-4.167,4.167h-58.338c-2.291,0-4.167-1.874-4.167-4.167V36.164
		c0-2.292,1.876-4.165,4.167-4.165h58.338c2.292,0,4.167,1.873,4.167,4.165V96.585z"/>
</g>
<g>
	<path fill="#36566F" d="M306.521,89.293h-58.338c-2.291,0-4.167-1.875-4.167-4.166V21.581c0-2.291,1.876-4.168,4.167-4.168h58.338
		c2.292,0,4.167,1.877,4.167,4.168v67.713H306.521z"/>
</g>
<g>
	<path fill="#6E9FBD" d="M310.688,25.748h4.167c1.148,0,2.084,0.938,2.084,2.083v8.333c0,1.148-0.936,2.084-2.084,2.084h-4.167
		V25.748z"/>
</g>
<g>
	<rect x="247.949" y="92.419" fill="#F3F3F3" width="62.738" height="5.208"/>
</g>
<g>
	<path fill="#FF9D84" d="M310.688,40.332h4.167c1.148,0,2.084,0.938,2.084,2.085v8.334c0,1.146-0.936,2.084-2.084,2.084h-4.167
		V40.332z"/>
</g>
<g>
	<g>
		<polygon fill="#FFFFFF" points="266.178,182.112 255.183,183.981 258.006,173.938 		"/>
	</g>
	<g>
		<g>
			<polygon fill="#FF8869" points="290.002,149.628 286.141,145.804 258.006,173.938 261.849,177.782 			"/>
		</g>
		<g>
			<polygon fill="#FF9D84" points="261.849,177.782 266.178,182.112 294.353,153.937 290.002,149.628 			"/>
		</g>
		<g>
			<polygon fill="#416785" points="300.563,139.067 296.721,135.224 286.141,145.804 290.002,149.628 			"/>
		</g>
		<g>
			<polygon fill="#36566F" points="294.353,153.937 304.893,143.396 300.563,139.067 290.002,149.628 			"/>
		</g>
	</g>
	<g>
		<polygon fill="#324A5E" points="255.971,181.2 258.232,183.464 255.183,183.981 		"/>
	</g>
</g>
<g>
	<rect x="254.115" y="29.13" fill="#FFFFFF" width="45.361" height="14.138"/>
</g>
<g>
	<rect x="254.166" y="50.184" fill="#FFFFFF" width="44.356" height="3.264"/>
</g>
<g>
	<rect x="254.166" y="59.975" fill="#FFFFFF" width="25.348" height="3.264"/>
</g>
</svg>
